 <svg xmlns="http://www.w3.org/2000/svg" xmlns:xlink="http://www.w3.org/1999/xlink" width="1440px" height="679px" viewBox="0 0 1440 679" preserveAspectRatio="none">
            <defs xmlns="http://www.w3.org/2000/svg">
                <rect id="path-1" x="0" y="0" width="1440" height="679"/>
                <linearGradient x1="50%" y1="100%" x2="50%" y2="3.061617e-15%" id="linearGradient-3">
                    <stop stop-color="#F0FBFC" offset="0%"/>
                    <stop stop-color="#A2D0ED" offset="100%"/>
                </linearGradient>
                <linearGradient x1="100%" y1="50%" x2="0%" y2="50%" id="linearGradient-4">
                    <stop stop-color="#F0FBFC" offset="0%"/>
                    <stop stop-color="#243A54" offset="100%"/>
                </linearGradient>
                <linearGradient x1="0%" y1="0%" x2="101.999998%" y2="100.999999%" id="linearGradient-5">
                    <stop stop-color="#A2D0ED" offset="0%"/>
                    <stop stop-color="#243A54" offset="100%"/>
                </linearGradient>
            </defs>
            <g stroke="none" stroke-width="1" fill="none" fill-rule="evenodd">
                <g>
                    <g>
                        <mask fill="white">
                            <use xlink:href="#path-1"/>
                        </mask>
                        <use fill="#FFFFFF" xlink:href="#path-1"/>
                        <g mask="url(#mask-2)">
                            <g xmlns="http://www.w3.org/2000/svg" transform="translate(-315.000000, -497.000000)">
                                <path d="M1346.2352,478.064952 C1081.80067,494.459555 934.398758,669.654702 1129.85674,772.620247 C1325.31472,875.585793 1400.58349,1177.77201 1637.25599,1103.48095 C1873.92849,1029.18988 1916.56207,928.385082 1966.41668,717.021392 C2016.27129,505.657702 1610.66973,461.670349 1346.2352,478.064952 Z" fill="url(#linearGradient-3)" opacity="0.1" transform="translate(1505.377374, 795.028972) rotate(-30.000000) translate(-1505.377374, -795.028972) "/>
                                <path d="M349.615694,551.273583 C108.30545,566.234932 -31.5636073,828.75018 142.252383,814.024361 C586.635712,732.608812 468.550789,1173.30774 624.430673,1155.16813 C780.310556,1137.02852 870.068596,962.225676 915.563519,769.339894 C961.058442,576.454111 590.925938,536.312234 349.615694,551.273583 Z" fill="url(#linearGradient-4)" opacity="0.15" transform="translate(492.054308, 852.074631) rotate(-195.000000) translate(-492.054308, -852.074631) "/>
                                <path xmlns="http://www.w3.org/2000/svg" d="M468,790.153887 C483.886763,798.105573 502,775.065883 502,756.453887 C502,737.841891 497.051615,734.151894 468,722.753887 C438.948385,711.355879 434,737.841891 434,756.453887 C434,775.065883 452.113237,782.202202 468,790.153887 Z" fill="#A2D0ED" opacity="0.2"/>
                                <path d="M660.153242,168.24208 C418.842998,183.203429 352.266376,264.496362 462.696654,437.046664 C573.126932,609.596966 709.748881,806.779115 925.724832,738.982748 C1141.70078,671.186381 1180.60614,579.194173 1226.10107,386.30839 C1271.59599,193.422608 901.463486,153.280731 660.153242,168.24208 Z" fill="url(#linearGradient-5)" opacity="0.1" transform="translate(820.443407, 459.038433) rotate(-210.000000) translate(-820.443407, -459.038433) "/>
                                <path xmlns="http://www.w3.org/2000/svg" d="M1294.43972,1010.82509 C1310.32649,1018.77677 1328.43972,995.737085 1328.43972,977.125089 C1328.43972,958.513092 1323.49134,954.823096 1294.43972,943.425088 C1265.38811,932.027081 1254.85769,966.067018 1254.85769,984.679014 C1254.85769,1003.29101 1278.55296,1002.8734 1294.43972,1010.82509 Z" fill="#243A54" opacity="0.2" transform="translate(1291.648707, 976.791016) rotate(-195.000000) translate(-1291.648707, -976.791016) "/>
                            </g>
                        </g>
                    </g>
                </g>
            </g>
        </svg>